<?xml version="1.0" encoding="utf-8"?>
<!-- Generator: Adobe Illustrator 24.0.1, SVG Export Plug-In . SVG Version: 6.00 Build 0)  -->
<svg version="1.1" id="Layer_1" xmlns="http://www.w3.org/2000/svg" xmlns:xlink="http://www.w3.org/1999/xlink" x="0px" y="0px"
	 viewBox="0 0 1096 286.2" style="enable-background:new 0 0 1096 286.2;" xml:space="preserve">
<style type="text/css">
	.st0{fill:#0081AA;}
	.st1{fill:#2BB0C9;}
	.st2{fill:#FFFFFF;}
	.st3{fill:url(#SVGID_1_);}
</style>
<g>
	<path class="st0" d="M367.6,178.2c-2.6,0.6-5.2,0.9-7.7,0.9c-3.8,0-6.8-0.6-8.9-1.9c-2.1-1.2-3.6-2.9-4.6-5.1
		c-1-2.1-1.6-4.6-1.8-7.5c-0.1-2.9-0.2-6-0.2-9.4v-51.8h30.5V88.8h-30.5V59.4h-17.3v29.4h-22.6v14.6h22.6v56.9
		c0,5.3,0.3,10.1,1,14.5c0.7,4.4,2,8,4.1,11c2.1,2.9,4.9,5.2,8.6,6.9c3.7,1.6,8.6,2.4,14.8,2.4c3.2,0,6.7-0.3,10.3-0.9
		c3.6-0.6,6.9-1.6,9.9-2.9l-0.7-15.7C372.8,176.7,370.3,177.6,367.6,178.2z"/>
	<path class="st0" d="M117,101.6c-4.7-4.9-10.4-8.7-17.1-11.4c-6.7-2.7-14.1-4.1-22.2-4.1c-7.5,0-14.4,1.6-20.7,4.6
		c-6.3,3.1-11.8,7.4-16.5,13.1H40V25.1H22.8v167.3H40V174h0.4c3.2,5.9,8.4,10.9,15.4,14.9c7,4.1,15.2,6.1,24.5,6.1
		c7.2,0,14-1.4,20.4-4.1c6.3-2.7,11.8-6.5,16.5-11.4c4.6-4.9,8.3-10.6,11-17.3c2.6-6.6,4-13.9,4-21.7c0-7.8-1.3-15.1-4-21.7
		C125.4,112.2,121.7,106.5,117,101.6z M110.9,155.7c-1.7,4.6-4.2,8.7-7.4,12.2c-3.3,3.5-7.1,6.2-11.6,8.2c-4.5,2-9.5,3-15.1,3
		c-5.6,0-10.7-1-15.2-3c-4.5-2-8.4-4.7-11.6-8.2c-3.2-3.5-5.7-7.5-7.4-12.2c-1.7-4.6-2.5-9.7-2.5-15.2c0-5.5,0.8-10.5,2.5-15.2
		c1.7-4.7,4.2-8.7,7.4-12.2c3.2-3.5,7.1-6.2,11.6-8.2c4.5-2,9.5-3,15.2-3c5.6,0,10.6,1,15.1,3c4.5,2,8.4,4.7,11.6,8.2
		c3.2,3.5,5.7,7.5,7.4,12.2c1.7,4.6,2.5,9.7,2.5,15.2C113.5,146,112.6,151.1,110.9,155.7z"/>
	<path class="st0" d="M980.3,100.8c-4.4-5.6-9.9-10-16.7-13.4c-6.9-3.5-15.1-5.1-24.7-5.1c-8.1,0-15.7,1.5-22.7,4.4
		c-6.9,2.9-13,7-18,12.2c-5,5.2-9,11.3-11.8,18.3c-2.9,7-4.3,14.6-4.3,22.7c0,8.1,1.3,15.7,3.9,22.7c2.6,7,6.4,13.1,11.3,18.3
		c4.9,5.2,10.9,9.3,17.9,12.2c7.1,3,14.9,4.4,23.4,4.4c20.5,0.1,37-7.5,48.5-22.4l1.6-2l-19-14.6l-1.5,1.9c-3.7,4.5-7.7,8.1-12,10.8
		c-4.1,2.6-9,3.9-14.8,3.9c-4.3,0-8.5-0.7-12.5-2.1c-4-1.4-7.5-3.3-10.5-5.8c-3-2.4-5.4-5.4-7.2-8.8c-1.4-2.7-2.1-5.6-2.4-8.8h83.8
		v-2.5v-7.1c0-7-0.9-13.9-2.9-20.7C987.8,112.5,984.6,106.3,980.3,100.8z M938.5,103.3c4.8,0,8.8,0.7,12.2,2.1
		c3.5,1.4,6.3,3.4,8.5,5.8c2.3,2.5,4,5.4,5.1,8.7c0.9,2.7,1.4,5.7,1.7,8.8h-57.3c0.3-2.4,0.8-4.7,1.8-7.2c1.4-3.3,3.4-6.3,6-9.1
		c2.5-2.7,5.7-4.9,9.5-6.6C929.8,104.1,933.9,103.3,938.5,103.3z"/>
	<path class="st0" d="M1075.4,83.7c-2.9-1-6.2-1.5-9.6-1.5c-3.5,0-7,0.5-10.5,1.5c-3.4,1-6.6,2.4-9.5,4.1c-2.9,1.7-5.6,3.8-7.9,6.3
		c-0.5,0.5-0.9,1.2-1.4,1.7v-11h-25v109.9h2.5h22.4v-55.2c0-11.2,2.5-18.9,7-23.7c4.6-4.8,11.2-7.4,20.5-7.4c1.5,0,2.9,0.1,4.4,0.4
		c1.6,0.3,3.1,0.6,4.7,1.1l3.1,0.8l1.1-26.5L1075.4,83.7z"/>
	<path class="st0" d="M599,100.8c-4.4-5.6-10-10-16.7-13.4c-6.9-3.5-15.1-5.1-24.7-5.1c-8.1,0-15.7,1.5-22.7,4.4
		c-6.9,2.9-13,7-18,12.2c-5,5.2-9,11.3-11.8,18.3c-2.9,7-4.3,14.6-4.3,22.7c0,8.1,1.3,15.7,3.9,22.7c2.6,7,6.4,13.1,11.3,18.3
		c4.9,5.2,10.9,9.3,17.9,12.2c7,3,14.9,4.4,23.4,4.4c20.5,0.1,37-7.5,48.5-22.4l1.5-2l-19-14.5l-1.5,1.9c-3.7,4.5-7.7,8.1-12,10.8
		c-4.1,2.6-9,3.9-14.8,3.9c-4.3,0-8.4-0.7-12.4-2.1c-4-1.4-7.5-3.3-10.5-5.8c-3-2.4-5.4-5.4-7.2-8.8c-1.4-2.7-2.1-5.6-2.4-8.8h83.8
		v-2.5v-7.1c0-7-1-13.9-2.9-20.7C606.5,112.5,603.4,106.3,599,100.8z M557.2,103.3c4.7,0,8.8,0.7,12.2,2.1c3.5,1.4,6.3,3.4,8.5,5.8
		c2.2,2.5,3.9,5.4,5.1,8.7c0.9,2.7,1.4,5.7,1.7,8.8h-57.3c0.3-2.4,0.8-4.7,1.8-7.2c1.4-3.3,3.4-6.3,6-9.1c2.6-2.7,5.7-4.9,9.5-6.6
		C548.6,104.1,552.7,103.3,557.2,103.3z"/>
	<path class="st0" d="M722.1,100.8c-4.4-5.6-9.9-10-16.7-13.4c-6.9-3.5-15.1-5.1-24.7-5.1c-8.1,0-15.7,1.5-22.7,4.4
		c-6.9,2.9-13,7-18,12.2c-5,5.2-9,11.3-11.8,18.3c-2.9,7-4.3,14.6-4.3,22.7c0,8.1,1.3,15.7,3.9,22.7c2.6,7,6.4,13.1,11.3,18.3
		c4.9,5.2,10.9,9.3,17.9,12.2c7,3,14.9,4.4,23.4,4.4c20.5,0.1,37-7.5,48.5-22.4l1.5-2l-19-14.5l-1.6,1.9c-3.7,4.5-7.7,8.1-12,10.8
		c-4.1,2.6-9,3.9-14.8,3.9c-4.3,0-8.5-0.7-12.5-2.1c-4-1.4-7.5-3.3-10.5-5.8c-3-2.4-5.4-5.4-7.2-8.8c-1.4-2.7-2.1-5.6-2.4-8.8h83.8
		v-2.5v-7.1c0-7-0.9-13.9-2.9-20.7C729.6,112.5,726.4,106.3,722.1,100.8z M680.3,103.3c4.8,0,8.8,0.7,12.2,2.1
		c3.5,1.4,6.3,3.4,8.5,5.8c2.2,2.5,3.9,5.4,5.1,8.7c0.9,2.7,1.4,5.7,1.7,8.8h-57.3c0.3-2.4,0.8-4.7,1.9-7.2c1.4-3.3,3.4-6.3,6-9.1
		c2.6-2.7,5.7-4.9,9.5-6.6C671.6,104.1,675.7,103.3,680.3,103.3z"/>
	<polygon class="st0" points="493.7,85.2 458.8,85.2 417.3,126.9 417.3,22.5 392.3,22.5 392.3,194.9 394.8,194.9 417.3,194.9 
		417.3,144.5 462.3,194.9 497.6,194.9 442.2,135.4 	"/>
	<path class="st0" d="M853.3,99c-4.9-5.3-10.8-9.4-17.7-12.3c-6.9-2.9-14.6-4.4-23-4.4c-7.4,0-14.7,1.6-21.7,4.9
		c-4.9,2.3-9.2,5.3-12.7,8.9V84.9h-25v172.3h2.5h22.4v-73.4c3.3,3.5,7.3,6.4,12.1,8.7c7,3.3,14.5,5,22.3,5c8.4,0,16.1-1.4,23-4.4
		c6.9-2.9,12.8-7,17.7-12.2c4.9-5.2,8.6-11.3,11.3-18.3c2.6-7,3.9-14.6,3.9-22.7c0-7.9-1.3-15.5-3.9-22.5
		C861.9,110.5,858.1,104.3,853.3,99z M810.2,105.9c5,0,9.4,0.9,13.4,2.6c4,1.7,7.3,4,10,6.9c2.7,2.9,4.8,6.4,6.3,10.6
		c1.5,4.2,2.3,8.8,2.3,13.9c0,5-0.8,9.7-2.3,13.9c-1.5,4.2-3.6,7.7-6.3,10.7c-2.7,2.9-6,5.2-10,6.9c-3.9,1.7-8.4,2.6-13.4,2.6
		c-5,0-9.5-0.9-13.4-2.6c-4-1.7-7.3-4-10-6.9c-2.7-2.9-4.8-6.4-6.3-10.7c-1.5-4.2-2.3-8.8-2.3-13.9c0-5.1,0.8-9.7,2.3-13.9
		c1.5-4.2,3.6-7.7,6.3-10.6c2.7-2.9,6-5.2,10-6.9C800.7,106.8,805.1,105.9,810.2,105.9z"/>
	<g>
		<path class="st1" d="M117.6,225.4h-11.8v31.8h-4.2v-31.8H89.7v-4h27.9V225.4z"/>
		<path class="st1" d="M121.9,219h3.9v17.8h0.1c0.3-0.5,0.6-0.9,1.1-1.4c0.5-0.5,1.1-0.9,1.7-1.2c0.7-0.4,1.4-0.7,2.2-0.9
			c0.8-0.2,1.7-0.4,2.6-0.4c1.6,0,2.9,0.2,4,0.7c1.1,0.5,2.1,1.1,2.8,2c0.7,0.8,1.3,1.9,1.6,3c0.4,1.2,0.5,2.5,0.5,3.9v14.6h-4
			v-14.2c0-2-0.4-3.6-1.3-4.7c-0.9-1.1-2.2-1.7-4.1-1.7c-1.3,0-2.4,0.2-3.3,0.7c-0.9,0.4-1.7,1.1-2.3,1.9c-0.6,0.8-1,1.8-1.3,2.9
			c-0.3,1.1-0.4,2.4-0.4,3.7v11.5h-3.9V219z"/>
		<path class="st1" d="M171.1,253c-1.4,1.8-3,3.1-4.6,3.8c-1.7,0.7-3.6,1.1-5.9,1.1c-1.9,0-3.5-0.3-5-1c-1.5-0.7-2.7-1.5-3.8-2.7
			c-1-1.1-1.8-2.4-2.4-3.9c-0.6-1.5-0.8-3.1-0.8-4.8c0-1.8,0.3-3.5,0.9-5c0.6-1.5,1.4-2.8,2.5-4c1.1-1.1,2.4-1.9,3.8-2.5
			c1.5-0.6,3.1-0.9,4.9-0.9c1.6,0,3.2,0.3,4.5,0.8c1.4,0.6,2.6,1.4,3.6,2.4s1.8,2.4,2.3,3.9c0.5,1.5,0.8,3.3,0.8,5.2v1.3h-19.1
			c0.1,1,0.3,2,0.7,2.9c0.4,0.9,1,1.7,1.6,2.4c0.7,0.7,1.5,1.2,2.4,1.6c0.9,0.4,1.9,0.6,3,0.6c1.7,0,3.2-0.3,4.3-0.9
			c1.2-0.6,2.2-1.5,3.2-2.7L171.1,253z M167.7,243.3c-0.1-2-0.7-3.6-2-4.8c-1.2-1.2-3-1.8-5.2-1.8c-2.2,0-4,0.6-5.3,1.8
			c-1.3,1.2-2.1,2.8-2.4,4.8H167.7z"/>
		<path class="st1" d="M192.8,221.5H215v4h-17.9v11.8h16.7v3.9h-16.7v16.1h-4.2V221.5z"/>
		<path class="st1" d="M240.9,251.6c0,1.1,0,2.1,0.1,3c0.1,0.9,0.1,1.8,0.1,2.6h-3.7c0-0.7,0-1.3,0-1.9c0-0.6-0.1-1.3-0.1-2h-0.1
			c-0.3,0.6-0.7,1.1-1.1,1.7c-0.5,0.5-1.1,1-1.7,1.4c-0.7,0.4-1.4,0.8-2.3,1c-0.8,0.3-1.8,0.4-2.7,0.4c-1.5,0-2.9-0.2-4-0.7
			c-1.1-0.5-2.1-1.1-2.8-2c-0.7-0.8-1.3-1.9-1.6-3.1c-0.4-1.2-0.5-2.5-0.5-3.9v-14.6h3.9v14.2c0,2,0.4,3.6,1.3,4.7
			c0.9,1.1,2.2,1.7,4.1,1.7c1.3,0,2.4-0.2,3.3-0.7c0.9-0.4,1.7-1.1,2.3-1.9c0.6-0.8,1-1.8,1.3-2.9c0.3-1.1,0.4-2.3,0.4-3.7v-11.5
			h3.9V251.6z"/>
		<path class="st1" d="M261.3,236.9h-7v11.8c0,0.8,0,1.5,0.1,2.1c0,0.7,0.2,1.2,0.4,1.7c0.2,0.5,0.6,0.9,1.1,1.2
			c0.5,0.3,1.1,0.4,2,0.4c0.6,0,1.2-0.1,1.8-0.2c0.6-0.1,1.2-0.3,1.7-0.6l0.2,3.6c-0.7,0.3-1.4,0.5-2.2,0.7
			c-0.8,0.1-1.6,0.2-2.4,0.2c-1.4,0-2.5-0.2-3.4-0.6c-0.8-0.4-1.5-0.9-2-1.6c-0.5-0.7-0.8-1.5-0.9-2.5c-0.1-1-0.2-2.1-0.2-3.3v-13
			h-5.2v-3.3h5.2v-6.7h3.9v6.7h7V236.9z"/>
		<path class="st1" d="M286.8,251.6c0,1.1,0,2.1,0.1,3c0.1,0.9,0.1,1.8,0.1,2.6h-3.7c0-0.7,0-1.3-0.1-1.9c0-0.6-0.1-1.3-0.1-2H283
			c-0.3,0.6-0.7,1.1-1.1,1.7c-0.5,0.5-1.1,1-1.7,1.4c-0.7,0.4-1.4,0.8-2.3,1c-0.8,0.3-1.7,0.4-2.7,0.4c-1.6,0-2.9-0.2-4-0.7
			c-1.1-0.5-2.1-1.1-2.8-2c-0.7-0.8-1.3-1.9-1.6-3.1c-0.3-1.2-0.5-2.5-0.5-3.9v-14.6h3.9v14.2c0,2,0.4,3.6,1.3,4.7
			c0.9,1.1,2.2,1.7,4.1,1.7c1.3,0,2.4-0.2,3.3-0.7c0.9-0.4,1.7-1.1,2.3-1.9c0.6-0.8,1-1.8,1.3-2.9c0.3-1.1,0.4-2.3,0.4-3.7v-11.5
			h3.9V251.6z"/>
		<path class="st1" d="M294.2,239.2c0-1.1,0-2.1-0.1-3c-0.1-0.9-0.1-1.8-0.1-2.6h3.7c0,0.6,0,1.3,0,1.9c0,0.6,0.1,1.3,0.1,2h0.1
			c0.3-0.6,0.7-1.1,1.1-1.7c0.5-0.5,1.1-1,1.7-1.4c0.7-0.4,1.4-0.7,2.3-1c0.8-0.3,1.8-0.4,2.7-0.4c0.3,0,0.5,0,0.8,0
			c0.3,0,0.5,0.1,0.8,0.2l-0.3,4c-0.7-0.2-1.4-0.3-2.1-0.3c-2.4,0-4.2,0.8-5.3,2.4c-1.1,1.6-1.6,3.7-1.6,6.4v11.5h-3.9V239.2z"/>
		<path class="st1" d="M332.2,253c-1.4,1.8-3,3.1-4.7,3.8c-1.7,0.7-3.6,1.1-5.9,1.1c-1.8,0-3.5-0.3-5-1c-1.5-0.7-2.7-1.5-3.8-2.7
			c-1-1.1-1.8-2.4-2.4-3.9c-0.6-1.5-0.8-3.1-0.8-4.8c0-1.8,0.3-3.5,0.9-5c0.6-1.5,1.4-2.8,2.5-4c1.1-1.1,2.3-1.9,3.8-2.5
			c1.5-0.6,3.1-0.9,4.9-0.9c1.7,0,3.2,0.3,4.5,0.8c1.4,0.6,2.6,1.4,3.6,2.4c1,1.1,1.8,2.4,2.3,3.9c0.5,1.5,0.8,3.3,0.8,5.2v1.3H314
			c0.1,1,0.3,2,0.7,2.9c0.4,0.9,1,1.7,1.6,2.4c0.7,0.7,1.5,1.2,2.4,1.6c0.9,0.4,1.9,0.6,3,0.6c1.7,0,3.2-0.3,4.4-0.9
			c1.2-0.6,2.2-1.5,3.2-2.7L332.2,253z M328.8,243.3c-0.1-2-0.7-3.6-2-4.8c-1.3-1.2-3-1.8-5.2-1.8c-2.2,0-4,0.6-5.3,1.8
			c-1.3,1.2-2.2,2.8-2.4,4.8H328.8z"/>
		<path class="st1" d="M351.9,245.4c0-1.9,0.3-3.5,1-5.1c0.6-1.5,1.5-2.8,2.6-3.9c1.1-1.1,2.4-1.9,4-2.5c1.5-0.6,3.2-0.9,5.1-0.9
			c1.8,0,3.5,0.3,5.1,0.9c1.5,0.6,2.9,1.5,4,2.5c1.1,1.1,2,2.4,2.6,3.9c0.6,1.5,1,3.2,1,5.1c0,1.8-0.3,3.5-1,5.1
			c-0.6,1.5-1.5,2.8-2.6,3.9c-1.1,1.1-2.5,2-4,2.6c-1.6,0.6-3.2,0.9-5.1,0.9c-1.8,0-3.5-0.3-5.1-0.9c-1.6-0.6-2.9-1.5-4-2.6
			c-1.1-1.1-2-2.4-2.6-3.9C352.2,249,351.9,247.3,351.9,245.4z M356.1,245.4c0,1.2,0.2,2.4,0.6,3.5c0.4,1.1,0.9,2,1.7,2.8
			c0.7,0.8,1.6,1.4,2.6,1.9c1,0.5,2.2,0.7,3.5,0.7c1.3,0,2.4-0.2,3.5-0.7c1-0.5,1.9-1.1,2.6-1.9c0.8-0.8,1.3-1.7,1.7-2.8
			c0.4-1.1,0.6-2.2,0.6-3.5c0-1.3-0.2-2.4-0.6-3.5c-0.4-1.1-0.9-2-1.7-2.8c-0.7-0.8-1.6-1.4-2.6-1.9c-1-0.5-2.2-0.7-3.5-0.7
			c-1.3,0-2.4,0.2-3.5,0.7c-1,0.5-1.9,1.1-2.6,1.9c-0.7,0.8-1.3,1.7-1.7,2.8C356.3,243,356.1,244.2,356.1,245.4z"/>
		<path class="st1" d="M385.3,236.9h-5.2v-3.3h5.2v-5.3c0-1.5,0.1-2.8,0.4-4c0.3-1.2,0.7-2.2,1.4-3.1c0.7-0.9,1.5-1.6,2.6-2
			c1.1-0.5,2.4-0.7,4-0.7c0.5,0,1.1,0,1.6,0.1c0.6,0.1,1,0.3,1.4,0.5l-0.6,3.5c-0.9-0.3-1.8-0.5-2.7-0.5c-1,0-1.8,0.2-2.4,0.5
			c-0.6,0.4-1,0.8-1.3,1.5c-0.3,0.6-0.5,1.4-0.5,2.2c0,0.9-0.1,1.8-0.1,2.8v4.5h5.8v3.3h-5.8v20.3h-3.9V236.9z"/>
	</g>
	<g>
		<path class="st1" d="M416.1,222h10.5c1.4,0,2.8,0.2,4.2,0.4c1.4,0.3,2.6,0.8,3.7,1.5c1.1,0.7,1.9,1.5,2.6,2.6c0.7,1.1,1,2.4,1,4
			c0,2-0.5,3.7-1.6,5c-1.1,1.3-2.5,2.3-4.4,2.8v0.1c1.1,0.1,2.1,0.4,3.1,0.8c0.9,0.5,1.8,1.1,2.5,1.9c0.7,0.8,1.2,1.6,1.6,2.6
			c0.4,1,0.6,2.1,0.6,3.2c0,1.9-0.4,3.5-1.2,4.8c-0.8,1.3-1.8,2.2-3.1,3c-1.3,0.7-2.7,1.3-4.3,1.6c-1.6,0.3-3.2,0.4-4.8,0.4h-10.3
			V222z M420.2,236.8h5.6c1,0,1.9-0.1,2.9-0.2c0.9-0.1,1.8-0.4,2.5-0.8c0.7-0.4,1.4-1,1.8-1.7c0.5-0.7,0.7-1.7,0.7-2.9
			c0-1.1-0.2-2-0.6-2.6c-0.4-0.7-1-1.2-1.7-1.6c-0.7-0.4-1.5-0.7-2.4-0.8c-0.9-0.1-1.8-0.2-2.7-0.2h-6.1V236.8z M420.2,253.1h6.9
			c1,0,2-0.1,3-0.3c1-0.2,1.9-0.6,2.7-1c0.8-0.5,1.4-1.1,1.9-1.9c0.5-0.8,0.7-1.7,0.7-2.8c0-1.2-0.2-2.2-0.7-3
			c-0.5-0.8-1.1-1.5-1.9-2c-0.8-0.5-1.6-0.8-2.6-1c-1-0.2-2-0.3-3-0.3h-7V253.1z"/>
		<path class="st1" d="M444.7,245.4c0-1.8,0.3-3.5,0.9-4.9c0.6-1.5,1.5-2.8,2.5-3.8c1.1-1.1,2.4-1.9,3.8-2.5
			c1.5-0.6,3.1-0.9,4.8-0.9c1.7,0,3.4,0.3,4.9,0.9c1.5,0.6,2.8,1.4,3.8,2.5c1.1,1.1,1.9,2.4,2.5,3.8c0.6,1.5,0.9,3.1,0.9,4.9
			c0,1.8-0.3,3.4-0.9,4.9c-0.6,1.5-1.5,2.8-2.5,3.8c-1.1,1.1-2.3,1.9-3.8,2.5c-1.5,0.6-3.1,0.9-4.9,0.9c-1.7,0-3.4-0.3-4.8-0.9
			c-1.5-0.6-2.8-1.4-3.8-2.5c-1.1-1.1-1.9-2.3-2.5-3.8C445,248.8,444.7,247.2,444.7,245.4z M448.8,245.4c0,1.2,0.2,2.3,0.6,3.4
			c0.4,1,0.9,1.9,1.6,2.7c0.7,0.8,1.6,1.4,2.6,1.8c1,0.4,2.1,0.7,3.3,0.7c1.2,0,2.3-0.2,3.3-0.7c1-0.4,1.8-1.1,2.6-1.8
			c0.7-0.8,1.2-1.7,1.6-2.7c0.4-1,0.6-2.1,0.6-3.4c0-1.2-0.2-2.3-0.6-3.4c-0.4-1-0.9-1.9-1.6-2.7c-0.7-0.8-1.6-1.4-2.6-1.8
			c-1-0.4-2.1-0.7-3.3-0.7c-1.2,0-2.3,0.2-3.3,0.7c-1,0.4-1.8,1.1-2.6,1.8c-0.7,0.8-1.2,1.7-1.6,2.7
			C449,243.1,448.8,244.2,448.8,245.4z"/>
		<path class="st1" d="M473.6,245.4c0-1.8,0.3-3.5,0.9-4.9c0.6-1.5,1.5-2.8,2.5-3.8c1.1-1.1,2.3-1.9,3.8-2.5
			c1.5-0.6,3.1-0.9,4.9-0.9c1.8,0,3.4,0.3,4.9,0.9c1.5,0.6,2.8,1.4,3.8,2.5c1.1,1.1,1.9,2.4,2.5,3.8c0.6,1.5,0.9,3.1,0.9,4.9
			c0,1.8-0.3,3.4-0.9,4.9c-0.6,1.5-1.5,2.8-2.5,3.8c-1.1,1.1-2.3,1.9-3.8,2.5c-1.5,0.6-3.1,0.9-4.9,0.9c-1.7,0-3.4-0.3-4.9-0.9
			c-1.5-0.6-2.8-1.4-3.8-2.5c-1.1-1.1-1.9-2.3-2.5-3.8C473.9,248.8,473.6,247.2,473.6,245.4z M477.6,245.4c0,1.2,0.2,2.3,0.6,3.4
			c0.4,1,0.9,1.9,1.6,2.7c0.7,0.8,1.6,1.4,2.5,1.8c1,0.4,2.1,0.7,3.3,0.7c1.2,0,2.3-0.2,3.3-0.7c1-0.4,1.8-1.1,2.6-1.8
			c0.7-0.8,1.3-1.7,1.6-2.7c0.4-1,0.6-2.1,0.6-3.4c0-1.2-0.2-2.3-0.6-3.4c-0.4-1-0.9-1.9-1.6-2.7c-0.7-0.8-1.6-1.4-2.6-1.8
			c-1-0.4-2.1-0.7-3.3-0.7c-1.2,0-2.3,0.2-3.3,0.7c-1,0.4-1.8,1.1-2.5,1.8c-0.7,0.8-1.3,1.7-1.6,2.7
			C477.8,243.1,477.6,244.2,477.6,245.4z"/>
		<path class="st1" d="M503.7,219.7h3.8V244l10.3-10.1h5.4l-11,10.5l12.1,12.6h-5.6l-11.3-12.1v12.1h-3.8V219.7z"/>
		<path class="st1" d="M528,219.7h3.8V244l10.3-10.1h5.4l-11,10.5l12.1,12.6h-5.6l-11.3-12.1v12.1H528V219.7z"/>
		<path class="st1" d="M572.6,252.7c-1.3,1.8-2.9,3-4.5,3.7c-1.6,0.7-3.5,1.1-5.6,1.1c-1.8,0-3.4-0.3-4.8-1
			c-1.4-0.6-2.6-1.5-3.6-2.6c-1-1.1-1.8-2.4-2.3-3.8c-0.5-1.5-0.8-3-0.8-4.7c0-1.8,0.3-3.4,0.9-4.9c0.6-1.5,1.4-2.8,2.4-3.8
			c1-1.1,2.3-1.9,3.7-2.5c1.4-0.6,3-0.9,4.7-0.9c1.6,0,3,0.3,4.4,0.8c1.3,0.5,2.5,1.3,3.4,2.4s1.7,2.3,2.2,3.8
			c0.5,1.5,0.8,3.2,0.8,5.1v1.2H555c0.1,1,0.3,1.9,0.7,2.8c0.4,0.9,0.9,1.7,1.6,2.4c0.7,0.7,1.4,1.2,2.3,1.6
			c0.9,0.4,1.8,0.6,2.9,0.6c1.6,0,3-0.3,4.2-0.9c1.1-0.6,2.1-1.5,3.1-2.6L572.6,252.7z M569.3,243.3c-0.1-2-0.7-3.5-1.9-4.7
			c-1.2-1.2-2.8-1.8-4.9-1.8c-2.1,0-3.8,0.6-5.1,1.8c-1.3,1.2-2.1,2.8-2.3,4.7H569.3z"/>
		<path class="st1" d="M599.6,252.7c-1.4,1.8-2.9,3-4.5,3.7c-1.6,0.7-3.5,1.1-5.6,1.1c-1.8,0-3.4-0.3-4.8-1
			c-1.4-0.6-2.6-1.5-3.6-2.6c-1-1.1-1.7-2.4-2.3-3.8c-0.5-1.5-0.8-3-0.8-4.7c0-1.8,0.3-3.4,0.9-4.9c0.6-1.5,1.4-2.8,2.4-3.8
			c1-1.1,2.3-1.9,3.7-2.5c1.4-0.6,3-0.9,4.7-0.9c1.6,0,3,0.3,4.4,0.8c1.3,0.5,2.5,1.3,3.4,2.4c0.9,1,1.7,2.3,2.2,3.8
			c0.5,1.5,0.8,3.2,0.8,5.1v1.2h-18.3c0.1,1,0.3,1.9,0.7,2.8c0.4,0.9,0.9,1.7,1.6,2.4c0.7,0.7,1.4,1.2,2.3,1.6
			c0.9,0.4,1.8,0.6,2.9,0.6c1.6,0,3-0.3,4.2-0.9c1.1-0.6,2.2-1.5,3.1-2.6L599.6,252.7z M596.3,243.3c-0.1-2-0.7-3.5-1.9-4.7
			c-1.2-1.2-2.8-1.8-5-1.8s-3.8,0.6-5.1,1.8c-1.3,1.2-2.1,2.8-2.3,4.7H596.3z"/>
		<path class="st1" d="M606.1,233.9h3.8v3.3h0.1c1-1.3,2.2-2.2,3.6-2.9c1.4-0.7,2.9-1,4.5-1c1.8,0,3.4,0.3,4.9,0.9
			c1.5,0.6,2.7,1.5,3.8,2.5c1,1.1,1.8,2.4,2.4,3.8c0.6,1.5,0.9,3.1,0.9,4.8c0,1.7-0.3,3.3-0.9,4.8c-0.6,1.5-1.4,2.8-2.4,3.8
			c-1,1.1-2.2,1.9-3.6,2.5c-1.4,0.6-2.9,0.9-4.5,0.9c-2,0-3.8-0.5-5.4-1.4c-1.6-0.9-2.7-2-3.4-3.3h-0.1v15.3h-3.8V233.9z
			 M609.9,245.4c0,1.2,0.2,2.3,0.6,3.4c0.4,1,0.9,1.9,1.6,2.7c0.7,0.8,1.6,1.4,2.5,1.8c1,0.4,2.1,0.7,3.3,0.7c1.2,0,2.4-0.2,3.3-0.7
			c1-0.4,1.8-1.1,2.5-1.8c0.7-0.8,1.3-1.7,1.6-2.7c0.4-1,0.6-2.1,0.6-3.4c0-1.2-0.2-2.3-0.6-3.4c-0.4-1-0.9-1.9-1.6-2.7
			c-0.7-0.8-1.5-1.4-2.5-1.8c-1-0.4-2.1-0.7-3.3-0.7c-1.2,0-2.3,0.2-3.3,0.7c-1,0.4-1.8,1.1-2.5,1.8c-0.7,0.8-1.3,1.7-1.6,2.7
			C610.1,243.1,609.9,244.2,609.9,245.4z"/>
		<path class="st1" d="M635.4,224.8c0-0.7,0.3-1.4,0.8-2c0.5-0.5,1.2-0.8,2-0.8c0.8,0,1.4,0.3,2,0.8c0.5,0.6,0.8,1.2,0.8,2
			c0,0.8-0.3,1.5-0.8,2c-0.5,0.5-1.2,0.8-2,0.8c-0.8,0-1.5-0.3-2-0.8C635.7,226.3,635.4,225.7,635.4,224.8z M636.3,233.9h3.8v23.1
			h-3.8V233.9z"/>
		<path class="st1" d="M647.6,239.3c0-1.1,0-2-0.1-3c-0.1-0.9-0.1-1.7-0.1-2.5h3.6c0,0.6,0,1.2,0,1.9c0,0.6,0.1,1.3,0.1,1.9h0.1
			c0.3-0.6,0.6-1.1,1.1-1.6c0.5-0.5,1-1,1.7-1.4c0.7-0.4,1.4-0.7,2.2-1c0.8-0.2,1.7-0.4,2.6-0.4c1.5,0,2.8,0.2,3.9,0.7
			c1.1,0.5,2,1.1,2.7,1.9c0.7,0.8,1.2,1.8,1.6,3c0.3,1.2,0.5,2.4,0.5,3.8v14.2h-3.8v-13.8c0-1.9-0.4-3.5-1.3-4.6
			c-0.8-1.1-2.2-1.7-3.9-1.7c-1.2,0-2.3,0.2-3.2,0.6c-0.9,0.4-1.6,1-2.2,1.8c-0.6,0.8-1,1.7-1.3,2.8c-0.3,1.1-0.4,2.3-0.4,3.6v11.2
			h-3.8V239.3z"/>
		<path class="st1" d="M697.3,255.9c0,4.2-1.1,7.4-3.2,9.6c-2.1,2.2-5.2,3.3-9.2,3.3c-2.2,0-4.2-0.3-6-1c-1.8-0.7-3.5-1.8-5.1-3.4
			l2.7-3.2c1.2,1.3,2.5,2.3,3.8,3c1.3,0.7,2.9,1,4.6,1c1.7,0,3.1-0.3,4.2-0.7c1.1-0.5,2-1.2,2.6-2.1c0.7-0.9,1.1-1.9,1.4-3
			c0.3-1.1,0.4-2.3,0.4-3.5v-3h-0.1c-0.9,1.5-2.1,2.6-3.5,3.2c-1.5,0.7-3,1-4.5,1c-1.8,0-3.4-0.3-4.9-0.9c-1.5-0.6-2.8-1.4-3.8-2.5
			c-1.1-1-1.9-2.3-2.5-3.7c-0.6-1.4-0.9-3-0.9-4.7c0-1.9,0.3-3.6,0.9-5.1c0.6-1.5,1.4-2.8,2.4-3.8c1-1,2.3-1.8,3.8-2.4
			c1.5-0.6,3.2-0.8,5-0.8c0.8,0,1.6,0.1,2.3,0.3c0.8,0.2,1.5,0.5,2.3,0.8c0.7,0.4,1.4,0.9,2,1.4c0.6,0.6,1.1,1.2,1.5,2h0.1v-3.9h3.8
			V255.9z M677.4,245.4c0,1.2,0.2,2.3,0.6,3.3c0.4,1,1,1.9,1.7,2.6c0.7,0.7,1.6,1.3,2.5,1.7c1,0.4,2,0.7,3.1,0.7
			c1.3,0,2.4-0.2,3.5-0.7c1-0.5,1.9-1.1,2.5-1.8c0.7-0.8,1.2-1.7,1.6-2.7c0.4-1,0.6-2.1,0.6-3.2c0-1.2-0.2-2.4-0.6-3.4
			c-0.4-1-0.9-1.9-1.6-2.7c-0.7-0.7-1.6-1.3-2.6-1.7c-1-0.4-2.1-0.6-3.3-0.6c-1.2,0-2.3,0.2-3.3,0.7c-1,0.4-1.8,1.1-2.5,1.8
			c-0.7,0.8-1.2,1.7-1.6,2.7C677.6,243.1,677.4,244.2,677.4,245.4z"/>
	</g>
	<g>
		<g>
			<g>
				<path class="st0" d="M142.1,137.3v14.3c0,0.9,1.3,1.6,2.9,1.6h7.4v-17.5H145C143.4,135.7,142.1,136.4,142.1,137.3z"/>
				<path class="st0" d="M311,135.7h-7.4v17.5h7.4c1.6,0,2.9-0.7,2.9-1.6v-14.3C313.9,136.4,312.6,135.7,311,135.7z"/>
			</g>
			<g>
				<path class="st1" d="M156.8,130.8c-2.5,0-4.5,1.1-4.5,2.5v2.3v17.5v2.3c0,1.4,2,2.5,4.5,2.5h1c-0.1-1.3-0.1-2.7-0.1-4
					c0-8.1,1.4-15.9,3.9-23.2H156.8z"/>
				<path class="st1" d="M299.2,130.8h-4.8c2.5,7.3,3.9,15.1,3.9,23.2c0,1.3,0,2.7-0.1,4h1c2.5,0,4.5-1.1,4.5-2.5v-2.3v-17.5v-2.3
					C303.6,132,301.6,130.8,299.2,130.8z"/>
			</g>
			<path class="st0" d="M288.6,130.8c-9.3-24.6-32.9-42.1-60.6-42.1c-27.7,0-51.3,17.5-60.6,42.1c-2.7,7.2-4.2,15-4.2,23.2
				c0,1.4,0.1,2.7,0.1,4c2.1,32.9,30.3,43.3,64.7,43.3c34.4,0,62.6-10.4,64.7-43.3c0.1-1.3,0.1-2.7,0.1-4
				C292.8,145.9,291.3,138,288.6,130.8z"/>
			<path class="st1" d="M287.7,143.9c0,27.6-26.7,36.2-59.8,36.2c-33,0-59.8-8.6-59.8-36.2c0-27.6,26.8-49.9,59.8-49.9
				C261,93.9,287.7,116.3,287.7,143.9z"/>
			<path class="st2" d="M281.4,140.8c0,24-23.9,31.4-53.5,31.4c-29.5,0-53.5-7.4-53.5-31.4c0-24,23.9-43.4,53.5-43.4
				C257.5,97.4,281.4,116.8,281.4,140.8z"/>
			<g>
				<g>
					<path class="st0" d="M208.9,147.5c-9,0-16.3-7.3-16.3-16.3c0-9,7.3-16.3,16.3-16.3c9,0,16.3,7.3,16.3,16.3
						C225.2,140.2,217.9,147.5,208.9,147.5z M208.9,119.6c-6.4,0-11.5,5.2-11.5,11.6c0,6.4,5.2,11.6,11.5,11.6
						c6.4,0,11.6-5.2,11.6-11.6C220.5,124.8,215.3,119.6,208.9,119.6z"/>
				</g>
				<g>
					<path class="st0" d="M261,134.9c-0.5,0-1.1-0.2-1.6-0.6c-11.4-9.8-21-0.5-21.4-0.1c-0.9,0.9-2.4,0.9-3.4,0
						c-0.9-0.9-0.9-2.4,0-3.4c0.1-0.1,13.1-12.8,27.9-0.1c1,0.8,1.1,2.3,0.3,3.4C262.3,134.6,261.7,134.9,261,134.9z"/>
				</g>
			</g>
			<g>
				<g>
					<path class="st0" d="M226.3,163.9c-5.1,0-10.2-1.9-15.1-5.8c-1-0.8-1.2-2.3-0.4-3.4c0.8-1,2.3-1.2,3.3-0.4
						c4.8,3.8,9.6,5.3,14.5,4.6c9-1.3,15.3-10.2,15.3-10.3c0.8-1.1,2.2-1.4,3.3-0.6c1.1,0.8,1.4,2.2,0.6,3.3
						c-0.3,0.4-7.4,10.6-18.5,12.2C228.4,163.8,227.4,163.9,226.3,163.9z"/>
				</g>
				<g>
					<path class="st0" d="M248.7,154c-0.5,0-1-0.1-1.4-0.5l-5.6-4.2c-1.1-0.8-1.3-2.3-0.5-3.3c0.8-1.1,2.3-1.3,3.3-0.5l5.7,4.2
						c1.1,0.8,1.3,2.3,0.5,3.3C250.1,153.7,249.4,154,248.7,154z"/>
				</g>
			</g>
			<g>
				<linearGradient id="SVGID_1_" gradientUnits="userSpaceOnUse" x1="227.9935" y1="159.1695" x2="227.9935" y2="88.7031">
					<stop  offset="0" style="stop-color:#FFFFFF;stop-opacity:0"/>
					<stop  offset="1" style="stop-color:#FFFFFF;stop-opacity:0.5"/>
				</linearGradient>
				<path class="st3" d="M281.9,129.6c0,22.6-24.2,29.6-54,29.6c-29.8,0-54-7-54-29.6c0-22.6,24.2-40.9,54-40.9
					C257.8,88.7,281.9,107,281.9,129.6z"/>
			</g>
		</g>
	</g>
</g>
</svg>
